<svg width="128" height="128" viewBox="0 0 128 128" fill="none" xmlns="http://www.w3.org/2000/svg">
  <defs>
    <linearGradient id="bg" x1="12" y1="10" x2="118" y2="122" gradientUnits="userSpaceOnUse">
      <stop stop-color="#4F87C5" />
      <stop offset="1" stop-color="#2A5D9C" />
    </linearGradient>
  </defs>
  <rect width="128" height="128" rx="28" fill="url(#bg)" />
  <path
    d="M59.7953 35.409C66.5653 35.409 71.9958 37.0684 76.0867 40.3872C80.1775 43.6531 82.2229 48.0096 82.2229 53.4568H65.3964C65.3964 50.7861 64.2781 48.6587 62.0415 47.0744C59.8048 45.4901 56.8257 44.6979 53.1041 44.6979C49.4889 44.6979 46.6695 45.3839 44.6459 46.7558C42.6755 48.0741 41.6903 49.8705 41.6903 52.1451C41.6903 54.4724 42.915 56.2688 45.3644 57.5345C47.8138 58.8002 52.1173 60.1458 58.2749 61.5715C63.7397 62.8372 68.1229 64.183 71.4247 65.6088C74.7264 66.981 77.4155 68.9896 79.4918 71.6345C81.6214 74.2794 82.6862 77.6773 82.6862 81.8282C82.6862 86.0107 81.4881 89.646 79.0918 92.734C76.7488 95.8221 73.4471 98.2022 69.1867 99.8744C64.9264 101.547 60.0638 102.383 54.5989 102.383C48.2814 102.383 42.7235 101.35 37.9251 99.2817C33.1268 97.1605 29.3985 94.2279 26.7404 90.4838C24.1356 86.6869 22.832 82.4177 22.8298 77.6761H39.7366C39.7899 81.3149 41.1835 84.0738 43.9175 85.9528C46.7048 87.8317 50.452 88.7712 55.1592 88.7712C59.5263 88.7712 62.9605 88.0301 65.4618 86.5478C68.0164 85.0127 69.2938 82.9849 69.2938 80.4644C69.2938 77.7833 68.0691 75.8064 65.6197 74.5338C63.1703 73.2613 58.819 71.8398 52.5659 70.2693C46.3129 68.6988 41.3159 67.1266 37.5748 65.5528C33.8337 63.9262 30.6372 61.5321 27.9852 58.3705C25.3865 55.2089 24.0872 51.2807 24.0872 46.5859C24.0872 40.5798 26.5099 35.7726 31.3554 32.1645C36.2008 28.5563 42.3475 26.7523 49.7953 26.7523C54.5042 26.7523 58.7155 27.6383 62.4293 29.4102L59.7953 35.409Z"
    fill="#F4F8FC"
    fill-opacity="0.94"
  />
  <path
    d="M103.794 48.6487C101.985 46.7273 99.6152 45.2655 96.6831 44.2635C93.8032 43.2616 90.6307 42.7607 87.1658 42.7607C81.833 42.7607 77.0123 43.98 72.7038 46.4187C68.3954 48.8573 65.0138 52.2824 62.5592 56.6938C60.1046 61.1051 58.8773 66.2107 58.8773 72.0106C58.8773 77.8105 60.0784 82.8909 62.4807 87.2517C64.9353 91.5621 68.3425 94.9118 72.7022 97.301C77.0619 99.64 81.9872 100.809 87.4783 100.809C91.6733 100.809 95.4759 100.092 98.8862 98.6594C102.297 97.2264 105.105 95.192 107.312 92.556L98.965 84.1285C97.6295 85.6902 96.0117 86.9066 94.1116 87.7778C92.2637 88.649 90.207 89.0846 87.9414 89.0846C84.4263 89.0846 81.2918 88.3375 78.5378 86.8434C75.8367 85.3493 73.7267 83.2137 72.2079 80.4366C70.7419 77.6595 70.0088 74.4415 70.0088 70.7827C70.0088 67.1239 70.7419 63.9059 72.2079 61.1288C73.7267 58.3518 75.8367 56.2161 78.5378 54.722C81.2918 53.2279 84.4263 52.4808 87.9414 52.4808C90.1579 52.4808 92.2117 52.9047 94.1027 53.7526C96.0465 54.6005 97.7204 55.8438 99.1244 57.4824L103.794 48.6487Z"
    fill="#BFD9F3"
  />
</svg>
